<?xml version="1.0" encoding="utf-8"?>
<!-- Generator: Adobe Illustrator 27.3.1, SVG Export Plug-In . SVG Version: 6.00 Build 0)  -->
<svg version="1.1" id="Ebene_1" xmlns="http://www.w3.org/2000/svg" xmlns:xlink="http://www.w3.org/1999/xlink" x="0px" y="0px"
	 viewBox="0 0 463.7 395" style="enable-background:new 0 0 463.7 395;" xml:space="preserve">
<style type="text/css">
	.st0{opacity:0.937;fill-rule:evenodd;clip-rule:evenodd;fill:#FEFEFF;enable-background:new    ;}
	.st1{opacity:0.916;fill-rule:evenodd;clip-rule:evenodd;fill:#D0ECFF;enable-background:new    ;}
	.st2{opacity:0.925;fill-rule:evenodd;clip-rule:evenodd;fill:#D0ECFF;enable-background:new    ;}
	.st3{opacity:0.922;fill-rule:evenodd;clip-rule:evenodd;fill:#FEFEFF;enable-background:new    ;}
	.st4{opacity:0.926;fill-rule:evenodd;clip-rule:evenodd;fill:#FEFFFE;enable-background:new    ;}
	.st5{opacity:0.982;fill-rule:evenodd;clip-rule:evenodd;fill:#FFAA1A;enable-background:new    ;}
	.st6{opacity:0.854;fill-rule:evenodd;clip-rule:evenodd;fill:#D0ECFF;enable-background:new    ;}
	.st7{opacity:0.933;fill-rule:evenodd;clip-rule:evenodd;fill:#FEFEFF;enable-background:new    ;}
	.st8{opacity:0.934;fill-rule:evenodd;clip-rule:evenodd;fill:#FEFEFF;enable-background:new    ;}
	.st9{opacity:0.967;fill-rule:evenodd;clip-rule:evenodd;fill:#FEFEFF;enable-background:new    ;}
	.st10{opacity:0.971;fill-rule:evenodd;clip-rule:evenodd;fill:#FEFEFF;enable-background:new    ;}
	.st11{opacity:0.902;fill-rule:evenodd;clip-rule:evenodd;fill:#D0ECFF;enable-background:new    ;}
	.st12{opacity:0.903;fill-rule:evenodd;clip-rule:evenodd;fill:#D0ECFF;enable-background:new    ;}
	.st13{opacity:0.86;fill-rule:evenodd;clip-rule:evenodd;fill:#D2EBFD;enable-background:new    ;}
	.st14{opacity:0.862;fill-rule:evenodd;clip-rule:evenodd;fill:#D2EBFD;enable-background:new    ;}
	.st15{opacity:0.855;fill-rule:evenodd;clip-rule:evenodd;fill:#D0ECFF;enable-background:new    ;}
	.st16{opacity:0.931;fill-rule:evenodd;clip-rule:evenodd;fill:#FEFEFF;enable-background:new    ;}
	.st17{opacity:0.935;fill-rule:evenodd;clip-rule:evenodd;fill:#FEFFFE;enable-background:new    ;}
	.st18{opacity:0.97;fill-rule:evenodd;clip-rule:evenodd;fill:#FEFEFF;enable-background:new    ;}
	.st19{opacity:0.972;fill-rule:evenodd;clip-rule:evenodd;fill:#FEFEFF;enable-background:new    ;}
	.st20{opacity:0.907;fill-rule:evenodd;clip-rule:evenodd;fill:#D0ECFF;enable-background:new    ;}
	.st21{opacity:0.909;fill-rule:evenodd;clip-rule:evenodd;fill:#D0ECFF;enable-background:new    ;}
	.st22{opacity:0.916;fill-rule:evenodd;clip-rule:evenodd;fill:#D2EBFD;enable-background:new    ;}
	.st23{opacity:0.917;fill-rule:evenodd;clip-rule:evenodd;fill:#D2EBFD;enable-background:new    ;}
	.st24{opacity:0.852;fill-rule:evenodd;clip-rule:evenodd;fill:#D0ECFF;enable-background:new    ;}
	.st25{opacity:0.853;fill-rule:evenodd;clip-rule:evenodd;fill:#D0ECFF;enable-background:new    ;}
	.st26{opacity:0.92;fill-rule:evenodd;clip-rule:evenodd;fill:#FEFEFF;enable-background:new    ;}
	.st27{opacity:0.922;fill-rule:evenodd;clip-rule:evenodd;fill:#D0ECFF;enable-background:new    ;}
	.st28{opacity:0.918;fill-rule:evenodd;clip-rule:evenodd;fill:#D0ECFF;enable-background:new    ;}
	.st29{opacity:0.94;fill-rule:evenodd;clip-rule:evenodd;fill:#FEFEFF;enable-background:new    ;}
	.st30{opacity:0.938;fill-rule:evenodd;clip-rule:evenodd;fill:#FEFEFF;enable-background:new    ;}
</style>
<g>
	<path class="st0" d="M189.6,44.6c-8.2-5.4-12.5-13.1-13-23c2.8-15.6,12.1-22.7,28-21.5c11.6,3.5,18,11.3,19,23.5
		C219.5,42.3,208.1,49.3,189.6,44.6z"/>
</g>
<g>
	<path class="st0" d="M290.6,21.6c-0.4,9.4-4.4,16.7-12,22c-11.8,5.2-22,2.8-30.5-7c-8-15.6-4.1-27.5,11.5-35.5
		C276.7-2.2,287,4.6,290.6,21.6z"/>
</g>
<g>
	<path class="st1" d="M176.6,21.6c0.5,9.9,4.8,17.6,13,23c-31.2,15.7-62.2,31.7-93,48c0.1-7.1-2.9-12.5-9-16
		C117.4,58.6,147.1,40.2,176.6,21.6z"/>
</g>
<g>
	<path class="st2" d="M290.6,21.6c29.5,18.6,59.2,36.9,89,55c-6.1,3.5-9.1,8.8-9,16c-31-15.8-61.7-32.2-92-49
		C286.2,38.4,290.2,31,290.6,21.6z"/>
</g>
<g>
	<path class="st3" d="M87.6,76.6c6.1,3.5,9.1,8.9,9,16c-0.8,4.1-2.8,7.5-6,10c-5.7,2.7-11.3,2.7-17,0c-8.7-9.6-7.7-18.1,3-25.5
		c2.1-0.3,4.1-0.8,6-1.5C84.1,76.4,85.8,76.8,87.6,76.6z"/>
</g>
<g>
	<path class="st4" d="M393.6,102.6c-2.8,0.8-5.6,1.5-8.5,2c-2.9-0.4-5.8-1-8.5-2c-3-2.7-5-6-6-10c-0.1-7.2,2.9-12.5,9-16
		c11.5-2,18.2,2.8,20,14.5C399,95.8,397,99.6,393.6,102.6z"/>
</g>
<g>
	<path class="st5" d="M332.6,147.6c-0.6,0.1-1.1,0.4-1.5,1c-0.7,5-0.7,10,0,15c0.4,0.6,0.9,0.9,1.5,1c0,18.7,0,37.3,0,56
		c-1.3,2.1-2,4.6-2,7.5c0.2,2.5,0.3,5,0.5,7.5c0.4,0.6,0.9,0.9,1.5,1c1,6.7-1,12.2-6,16.5c-29.2,16.4-58.2,33.1-87,50
		c-5.3,2.1-10.3,1.4-15-2c-28.3-16.3-56.7-32.7-85-49c-4.2-4.3-5.8-9.5-5-15.5c0.6-0.1,1.1-0.4,1.5-1c0.2-2.5,0.3-5,0.5-7.5
		c0-2.9-0.7-5.4-2-7.5c0-18.7,0-37.3,0-56c0.6-0.1,1.1-0.4,1.5-1c0.7-5,0.7-10,0-15c-0.4-0.6-0.9-0.9-1.5-1
		c-0.4-5.6,1.3-10.4,5-14.5c28.5-16.1,56.8-32.4,85-49c2.8-1.7,5.8-2.8,9-3.5c3.2,0.7,6.2,1.8,9,3.5c28.3,16.3,56.7,32.7,85,49
		C331.2,137.2,332.8,142.1,332.6,147.6z"/>
</g>
<g>
	<path class="st6" d="M73.6,102.6c5.7,2.7,11.3,2.7,17,0c0,14,0,28,0,42c-5.7-2.7-11.3-2.7-17,0C73.6,130.6,73.6,116.6,73.6,102.6z"
		/>
</g>
<g>
	<path class="st6" d="M376.6,102.6c2.7,1,5.6,1.6,8.5,2c2.9-0.5,5.7-1.2,8.5-2c0,14,0,28,0,42c-5.7-2.6-11.4-2.6-17,0
		C376.6,130.6,376.6,116.6,376.6,102.6z"/>
</g>
<g>
	<path class="st7" d="M43.6,145.6c2.6,7.3,2.6,14.7,0,22c-8.4,10.6-18.7,12.8-31,6.5c-10.1-9.3-11.6-19.8-4.5-31.5
		C20.9,131.6,32.8,132.6,43.6,145.6z"/>
</g>
<g>
	<path class="st8" d="M423.6,167.6c-2.6-7.3-2.6-14.7,0-22c10.3-12.3,21.8-13.6,34.5-4c7.3,10.1,7.3,20.1,0,30
		C445.3,180.6,433.8,179.3,423.6,167.6z"/>
</g>
<g>
	<path class="st9" d="M90.6,144.6c1.7,1,3,2.4,4,4c0.9,2.6,1.5,5.3,2,8c-0.7,2.7-1.3,5.3-2,8c-1,1.7-2.3,3-4,4c-2.9,0.8-5.9,1.5-9,2
		c-2.7-0.7-5.3-1.3-8-2c-0.7-1-1.3-2-2-3c-2.4-2.5-3.4-5.5-3-9c0.1-3.5,0.7-6.8,2-10c1.2-0.4,2.2-1.1,3-2
		C79.2,142,84.9,142,90.6,144.6z"/>
</g>
<g>
	<path class="st10" d="M393.6,144.6c0.3,1,1,1.7,2,2c3.6,6.1,3.9,12.5,1,19c-1.3,0.7-2.3,1.7-3,3c-3.1,0.8-6.3,1.4-9.5,2
		c-2.6-0.2-5.1-0.9-7.5-2c-1-1.7-2.3-3-4-4c-0.9-2.6-1.5-5.3-2-8c0.7-3,1.3-6,2-9c1.3-1,2.7-2,4-3C382.2,142,387.9,142,393.6,144.6z
		"/>
</g>
<g>
	<path class="st11" d="M43.6,145.6c9,0.2,18,0.5,27,1c-1.3,3.2-1.9,6.5-2,10c-0.4,3.5,0.6,6.5,3,9c-9.3,0.9-18.6,1.6-28,2
		C46.2,160.3,46.2,153,43.6,145.6z"/>
</g>
<g>
	<path class="st12" d="M423.6,145.6c-2.6,7.3-2.6,14.7,0,22c-9-0.5-18-1.1-27-2c2.9-6.5,2.6-12.9-1-19
		C404.9,146.2,414.2,145.9,423.6,145.6z"/>
</g>
<g>
	<path class="st13" d="M134.6,147.6c0.6,0.1,1.1,0.4,1.5,1c0.7,5,0.7,10,0,15c-0.4,0.6-0.9,0.9-1.5,1c-13.3,0-26.7,0-40,0
		c0.7-2.7,1.3-5.3,2-8c-0.5-2.7-1.1-5.4-2-8C107.7,147.6,121,147.3,134.6,147.6z"/>
</g>
<g>
	<path class="st14" d="M332.6,147.6c13.3,0,26.7,0,40,0c-0.7,3-1.3,6-2,9c0.5,2.7,1.1,5.4,2,8c-13.3,0-26.7,0-40,0
		c-0.6-0.1-1.1-0.4-1.5-1c-0.7-5-0.7-10,0-15C331.4,148.1,331.9,147.7,332.6,147.6z"/>
</g>
<g>
	<path class="st15" d="M73.6,168.6c2.7,0.7,5.3,1.3,8,2c3.1-0.5,6.1-1.2,9-2c0,16,0,32,0,48c-5.7-2.7-11.3-2.7-17,0
		C73.6,200.6,73.6,184.6,73.6,168.6z"/>
</g>
<g>
	<path class="st15" d="M376.6,168.6c2.4,1.1,4.9,1.8,7.5,2c3.2-0.6,6.4-1.2,9.5-2c0,16,0,32,0,48c-5.7-2.7-11.3-2.7-17,0
		C376.6,200.6,376.6,184.6,376.6,168.6z"/>
</g>
<g>
	<path class="st16" d="M43.6,217.6c2.6,7.3,2.6,14.7,0,22c-11.8,12.9-23.9,13.2-36.5,1c-7.7-18.3-1.8-29.7,17.5-34
		C32.6,207.4,39,211,43.6,217.6z"/>
</g>
<g>
	<path class="st17" d="M423.6,239.6c-2.6-7.3-2.6-14.7,0-22c10.8-13.2,22.7-14.2,35.5-3c8.9,15.8,5,27.3-11.5,34.5
		c-4.4,0.7-8.7,0.4-13-1C430.4,245.9,426.8,243,423.6,239.6z"/>
</g>
<g>
	<path class="st18" d="M90.6,216.6c1.7,1,3,2.4,4,4c0.9,2.6,1.5,5.3,2,8c-0.7,2.7-1.3,5.3-2,8c-1.7,1-3,2.3-4,4
		c-5.9,3-11.6,2.6-17-1c-1-0.7-2-1.3-3-2c-3-6.6-2.6-12.9,1-19c0.3-1,1-1.7,2-2C79.2,214,84.9,214,90.6,216.6z"/>
</g>
<g>
	<path class="st19" d="M393.6,216.6c0.3,1,1,1.7,2,2c4,6.4,4,12.7,0,19c-0.7,1-1.3,2-2,3c-3,0.7-6,1.3-9,2c-2.7-0.7-5.3-1.3-8-2
		c-1-1.7-2.3-3-4-4c-0.7-2.7-1.3-5.3-2-8c0.5-2.7,1.1-5.4,2-8c1-1.7,2.3-3,4-4C382.2,214,387.9,214,393.6,216.6z"/>
</g>
<g>
	<path class="st20" d="M43.6,217.6c9.3,0,18.7,0.4,28,1c-3.6,6.1-4,12.4-1,19c-9,0.7-18,1.4-27,2C46.2,232.3,46.2,225,43.6,217.6z"
		/>
</g>
<g>
	<path class="st21" d="M423.6,217.6c-2.6,7.3-2.6,14.7,0,22c-9.3-0.7-18.7-1.4-28-2c4-6.3,4-12.6,0-19
		C404.9,218,414.2,217.7,423.6,217.6z"/>
</g>
<g>
	<path class="st22" d="M94.6,220.6c13.3,0,26.7,0,40,0c1.3,2.1,2,4.6,2,7.5c-0.2,2.5-0.3,5-0.5,7.5c-0.4,0.6-0.9,0.9-1.5,1
		c-13.3,0-26.7,0-40,0c0.7-2.7,1.3-5.3,2-8C96.1,225.9,95.4,223.2,94.6,220.6z"/>
</g>
<g>
	<path class="st23" d="M332.6,220.6c13.3,0,26.7,0,40,0c-0.9,2.6-1.5,5.3-2,8c0.7,2.7,1.3,5.3,2,8c-13.3,0-26.7,0-40,0
		c-0.6-0.1-1.1-0.4-1.5-1c-0.2-2.5-0.3-5-0.5-7.5C330.6,225.2,331.2,222.7,332.6,220.6z"/>
</g>
<g>
	<path class="st24" d="M73.6,239.6c5.4,3.6,11.1,4,17,1c0,14,0,28,0,42c-5.7-2.7-11.3-2.7-17,0C73.6,268.3,73.6,254,73.6,239.6z"/>
</g>
<g>
	<path class="st25" d="M376.6,240.6c2.7,0.7,5.3,1.3,8,2c3-0.7,6-1.3,9-2c0,14,0,28,0,42c-5.7-2.7-11.3-2.7-17,0
		C376.6,268.6,376.6,254.6,376.6,240.6z"/>
</g>
<g>
	<path class="st26" d="M90.6,282.6c2.8,2.5,4.8,5.5,6,9c0.1,7.2-2.9,12.6-9,16c-13.5,2.3-20-3.3-19.5-17c1.1-3.2,2.9-5.9,5.5-8
		C79.2,280,84.9,280,90.6,282.6z"/>
</g>
<g>
	<path class="st3" d="M393.6,282.6c7.9,7.8,7.9,15.7,0,23.5c-4.5,2.5-9.1,3-14,1.5c-6.1-3.5-9.1-8.8-9-16c0.8-3.9,2.8-6.9,6-9
		C382.2,280,387.9,280,393.6,282.6z"/>
</g>
<g>
	<path class="st27" d="M96.6,291.6c30.7,16.3,61.3,32.7,92,49c-7.6,5.3-11.6,12.6-12,22c-30-18-59.6-36.3-89-55
		C93.6,304.2,96.6,298.9,96.6,291.6z"/>
</g>
<g>
	<path class="st28" d="M370.6,291.6c-0.1,7.2,2.9,12.5,9,16c-29.4,18.7-59.1,37.1-89,55c-0.4-9.4-4.4-16.8-12-22
		C309.2,324.3,339.9,308,370.6,291.6z"/>
</g>
<g>
	<path class="st29" d="M176.6,362.6c0.4-9.4,4.4-16.7,12-22c19.9-5.6,31.5,1.8,35,22c-4.3,19.5-16,26-35,19.5
		C181.4,377.6,177.4,371.1,176.6,362.6z"/>
</g>
<g>
	<path class="st30" d="M278.6,340.6c7.6,5.2,11.6,12.6,12,22c-3.3,18.1-13.9,25-32,20.5c-13.2-6.8-17.3-17.3-12.5-31.5
		C253.8,339.3,264.7,335.7,278.6,340.6z"/>
</g>
</svg>
