<?xml version="1.0" encoding="UTF-8"?>
<!DOCTYPE svg PUBLIC "-//W3C//DTD SVG 1.1//EN" "http://www.w3.org/Graphics/SVG/1.1/DTD/svg11.dtd">
<svg xmlns="http://www.w3.org/2000/svg" version="1.1" width="482px" height="416px" style="shape-rendering:geometricPrecision; text-rendering:geometricPrecision; image-rendering:optimizeQuality; fill-rule:evenodd; clip-rule:evenodd" xmlns:xlink="http://www.w3.org/1999/xlink">
<g><path style="opacity:0.85" fill="#0a1924" d="M 202.5,9.5 C 220.922,9.91999 231.589,19.2533 234.5,37.5C 231.769,53.0644 222.602,62.0644 207,64.5C 202.862,63.4187 198.695,62.9187 194.5,63C 165.342,78.0786 136.342,93.4119 107.5,109C 106.04,112.089 104.207,114.922 102,117.5C 101.5,130.829 101.333,144.163 101.5,157.5C 113.518,157.832 125.518,157.499 137.5,156.5C 138.498,151.003 141.165,146.503 145.5,143C 173.091,127.733 200.424,112.066 227.5,96C 231.608,93.6123 235.941,91.779 240.5,90.5C 245.059,91.779 249.392,93.6123 253.5,96C 280.167,111.333 306.833,126.667 333.5,142C 339.333,145.334 342.667,150.334 343.5,157C 355.495,157.5 367.495,157.667 379.5,157.5C 379.667,144.163 379.5,130.829 379,117.5C 377.291,114.582 375.458,111.748 373.5,109C 343.92,93.2939 314.42,77.4605 285,61.5C 267.865,66.7715 255.531,61.1049 248,44.5C 245.623,24.3738 254.457,12.7071 274.5,9.5C 289.136,11.1352 298.136,19.1352 301.5,33.5C 330.26,51.6005 359.26,69.2672 388.5,86.5C 401.406,85.8127 408.739,91.9794 410.5,105C 409.868,109.43 408.035,113.263 405,116.5C 404.5,129.829 404.333,143.163 404.5,156.5C 412.841,156.19 421.174,155.69 429.5,155C 442.518,141.545 455.685,141.379 469,154.5C 479.438,173.521 474.605,187.021 454.5,195C 444.574,196.358 436.241,193.358 429.5,186C 421.295,185.037 413.129,184.204 405,183.5C 404.5,198.496 404.333,213.496 404.5,228.5C 412.827,227.981 421.16,227.481 429.5,227C 442.386,213.28 455.553,213.113 469,226.5C 479.062,245.226 474.229,258.726 454.5,267C 450.095,267.696 445.761,267.363 441.5,266C 436.302,263.238 431.302,260.238 426.5,257C 419.142,256.684 411.809,256.184 404.5,255.5C 404.333,268.837 404.5,282.171 405,295.5C 413.6,307.701 411.433,317.534 398.5,325C 394.522,326.573 390.522,326.906 386.5,326C 358.5,343.333 330.5,360.667 302.5,378C 294.569,401.133 279.569,407.466 257.5,397C 242.234,380.926 243.234,365.926 260.5,352C 268.305,348.071 276.305,347.571 284.5,350.5C 314.325,335.088 343.991,319.421 373.5,303.5C 375.086,300.659 376.92,297.993 379,295.5C 379.5,281.837 379.667,268.171 379.5,254.5C 367.5,254.5 355.5,254.5 343.5,254.5C 343.618,261.096 340.952,266.263 335.5,270C 306.337,286.414 277.337,303.081 248.5,320C 246.134,321.233 243.634,322.066 241,322.5C 236.228,321.365 231.728,319.532 227.5,317C 200.167,301.333 172.833,285.667 145.5,270C 140.579,265.991 137.912,260.825 137.5,254.5C 125.5,254.5 113.5,254.5 101.5,254.5C 101.333,268.171 101.5,281.837 102,295.5C 104.08,297.993 105.914,300.659 107.5,303.5C 137.009,319.421 166.675,335.088 196.5,350.5C 218.251,345.718 230.918,354.385 234.5,376.5C 231.144,395.034 220.144,403.534 201.5,402C 189.594,398.427 182.094,390.594 179,378.5C 150.667,360.833 122.333,343.167 94,325.5C 80.775,327.12 72.9417,321.287 70.5,308C 70.8395,303.156 72.6728,298.99 76,295.5C 76.4999,282.171 76.6666,268.837 76.5,255.5C 68.1385,256.039 59.8052,256.872 51.5,258C 37.5014,271 24.0014,270.5 11,256.5C 3.63404,243.516 5.46737,232.016 16.5,222C 29.5947,213.859 41.2614,215.526 51.5,227C 59.8397,227.481 68.173,227.981 76.5,228.5C 76.5,213.833 76.5,199.167 76.5,184.5C 68.1198,184.262 59.7865,184.762 51.5,186C 37.5088,199.031 24.0088,198.531 11,184.5C 3.0943,170.399 5.5943,158.566 18.5,149C 31.0178,142.37 42.0178,144.37 51.5,155C 59.8259,155.69 68.1592,156.19 76.5,156.5C 76.6666,143.163 76.4999,129.829 76,116.5C 68.7567,108.24 68.7567,99.9065 76,91.5C 80.7837,87.1187 86.2837,85.452 92.5,86.5C 121.706,69.4652 150.539,51.7985 179,33.5C 182.376,20.9591 190.209,12.9591 202.5,9.5 Z M 102.5,182.5 C 114.167,182.5 125.833,182.5 137.5,182.5C 137.5,198.5 137.5,214.5 137.5,230.5C 125.586,230.821 113.753,230.488 102,229.5C 101.183,213.759 101.35,198.092 102.5,182.5 Z M 343.5,182.5 C 355.171,182.333 366.838,182.5 378.5,183C 379.159,190.757 379.492,198.591 379.5,206.5C 379.492,214.409 379.159,222.243 378.5,230C 366.838,230.5 355.171,230.667 343.5,230.5C 343.5,214.5 343.5,198.5 343.5,182.5 Z"/></g>
<g><path style="opacity:1" fill="#fafbfb" d="M 197.5,57.5 C 188.657,53.529 183.99,46.529 183.5,36.5C 187.546,17.662 198.88,11.162 217.5,17C 230.399,25.7766 232.899,36.9432 225,50.5C 217.376,59.1001 208.209,61.4334 197.5,57.5 Z"/></g>
<g><path style="opacity:1" fill="#fafbfb" d="M 297.5,36.5 C 297.008,46.5346 292.341,53.5346 283.5,57.5C 267.822,62.4111 257.322,57.0778 252,41.5C 250.795,29.019 255.961,20.1857 267.5,15C 284.186,13.2215 294.186,20.3882 297.5,36.5 Z"/></g>
<g><path style="opacity:1" fill="#cde9fb" d="M 183.5,36.5 C 183.99,46.529 188.657,53.529 197.5,57.5C 193.895,57.7986 190.561,58.9653 187.5,61C 159.631,76.1007 131.631,90.934 103.5,105.5C 103.395,99.2817 100.728,94.6151 95.5,91.5C 124.461,72.6801 153.794,54.3468 183.5,36.5 Z"/></g>
<g><path style="opacity:1" fill="#cce8fa" d="M 297.5,36.5 C 326.869,54.8474 356.203,73.1807 385.5,91.5C 380.263,94.6354 377.596,99.302 377.5,105.5C 350.905,92.2019 324.571,78.3686 298.5,64C 293.701,61.2646 288.701,59.0979 283.5,57.5C 292.341,53.5346 297.008,46.5346 297.5,36.5 Z"/></g>
<g><path style="opacity:1" fill="#fafafb" d="M 95.5,91.5 C 100.728,94.6151 103.395,99.2817 103.5,105.5C 101.916,109.675 99.5823,113.341 96.5,116.5C 91.172,119.447 86.172,119.113 81.5,115.5C 75.1912,110.188 74.0245,103.854 78,96.5C 82.6525,90.7511 88.4858,89.0844 95.5,91.5 Z"/></g>
<g><path style="opacity:1" fill="#f9fafa" d="M 399.5,115.5 C 394.828,119.113 389.828,119.447 384.5,116.5C 381.418,113.341 379.084,109.675 377.5,105.5C 377.596,99.302 380.263,94.6354 385.5,91.5C 399.052,89.2239 405.552,94.8906 405,108.5C 403.629,111.266 401.796,113.599 399.5,115.5 Z"/></g>
<g><path style="opacity:1" fill="#fda91a" d="M 338.5,162.5 C 337.167,167.5 337.167,172.5 338.5,177.5C 338.5,196.5 338.5,215.5 338.5,234.5C 337.167,239.5 337.167,244.5 338.5,249.5C 339.524,255.883 337.857,261.383 333.5,266C 305.909,281.267 278.576,296.934 251.5,313C 245.479,317.732 239.145,318.399 232.5,315C 204.33,298.414 175.997,282.081 147.5,266C 143.143,261.383 141.476,255.883 142.5,249.5C 143.8,244.6 143.8,239.6 142.5,234.5C 142.5,215.5 142.5,196.5 142.5,177.5C 143.833,172.5 143.833,167.5 142.5,162.5C 141.641,156.412 143.307,151.245 147.5,147C 176.663,130.586 205.663,113.919 234.5,97C 239.807,94.9247 244.807,95.5913 249.5,99C 277.833,115.333 306.167,131.667 334.5,148C 338.028,152.128 339.362,156.961 338.5,162.5 Z"/></g>
<g><path style="opacity:1" fill="#cae5f8" d="M 81.5,115.5 C 86.172,119.113 91.172,119.447 96.5,116.5C 96.5,130.5 96.5,144.5 96.5,158.5C 91.5,155.833 86.5,155.833 81.5,158.5C 81.5,144.167 81.5,129.833 81.5,115.5 Z"/></g>
<g><path style="opacity:1" fill="#cae5f8" d="M 399.5,115.5 C 399.5,129.833 399.5,144.167 399.5,158.5C 394.672,156.252 389.672,155.918 384.5,157.5C 384.5,143.833 384.5,130.167 384.5,116.5C 389.828,119.447 394.828,119.113 399.5,115.5 Z"/></g>
<g><path style="opacity:1" fill="#fbfbfb" d="M 50.5,160.5 C 53.1117,167.135 53.1117,173.801 50.5,180.5C 43.8013,188.901 35.1347,192.068 24.5,190C 10.6493,181.64 7.816,170.474 16,156.5C 28.7441,146.447 40.2441,147.78 50.5,160.5 Z"/></g>
<g><path style="opacity:1" fill="#fbfbfb" d="M 430.5,180.5 C 427.888,173.801 427.888,167.135 430.5,160.5C 440.573,147.51 452.073,146.177 465,156.5C 471.841,167.577 470.674,177.744 461.5,187C 449.224,193.39 438.89,191.224 430.5,180.5 Z"/></g>
<g><path style="opacity:1" fill="#fcfdfd" d="M 96.5,158.5 C 98.1392,159.473 99.4726,160.806 100.5,162.5C 104.012,167.254 104.345,172.254 101.5,177.5C 99.5,178.833 97.8333,180.5 96.5,182.5C 91.4868,185.06 86.4868,185.06 81.5,182.5C 80.8333,181.5 80.1667,180.5 79.5,179.5C 77.8564,178.684 76.6897,177.35 76,175.5C 75.1183,170.647 75.6183,165.981 77.5,161.5C 79.4044,161.262 80.7377,160.262 81.5,158.5C 86.5,155.833 91.5,155.833 96.5,158.5 Z"/></g>
<g><path style="opacity:1" fill="#fdfdfd" d="M 399.5,158.5 C 400.167,159.833 401.167,160.833 402.5,161.5C 405.361,165.702 406.194,170.369 405,175.5C 404.31,177.35 403.144,178.684 401.5,179.5C 401.167,180.5 400.5,181.167 399.5,181.5C 394.71,184.946 389.71,185.279 384.5,182.5C 383.167,180.5 381.5,178.833 379.5,177.5C 376.833,172.833 376.833,168.167 379.5,163.5C 380.833,163.5 381.5,162.833 381.5,161.5C 382.789,160.363 383.789,159.03 384.5,157.5C 389.672,155.918 394.672,156.252 399.5,158.5 Z"/></g>
<g><path style="opacity:1" fill="#cde9fb" d="M 50.5,160.5 C 59.5154,160.501 68.5154,160.834 77.5,161.5C 75.6183,165.981 75.1183,170.647 76,175.5C 76.6897,177.35 77.8564,178.684 79.5,179.5C 69.8057,179.307 60.1391,179.64 50.5,180.5C 53.1117,173.801 53.1117,167.135 50.5,160.5 Z"/></g>
<g><path style="opacity:1" fill="#cbe7f9" d="M 430.5,160.5 C 427.888,167.135 427.888,173.801 430.5,180.5C 420.831,180.211 411.165,179.878 401.5,179.5C 403.144,178.684 404.31,177.35 405,175.5C 406.194,170.369 405.361,165.702 402.5,161.5C 411.809,160.683 421.143,160.35 430.5,160.5 Z"/></g>
<g><path style="opacity:1" fill="#9ab2c2" d="M 381.5,161.5 C 381.5,162.833 380.833,163.5 379.5,163.5C 365.656,163.829 351.99,163.496 338.5,162.5C 352.912,162.816 367.245,162.482 381.5,161.5 Z"/></g>
<g><path style="opacity:1" fill="#cce5f7" d="M 100.5,162.5 C 114.5,162.5 128.5,162.5 142.5,162.5C 143.833,167.5 143.833,172.5 142.5,177.5C 128.833,177.5 115.167,177.5 101.5,177.5C 104.345,172.254 104.012,167.254 100.5,162.5 Z"/></g>
<g><path style="opacity:1" fill="#d0e9fb" d="M 338.5,162.5 C 351.99,163.496 365.656,163.829 379.5,163.5C 376.833,168.167 376.833,172.833 379.5,177.5C 365.833,177.5 352.167,177.5 338.5,177.5C 337.167,172.5 337.167,167.5 338.5,162.5 Z"/></g>
<g><path style="opacity:0.81" fill="#071722" d="M 101.5,177.5 C 115.167,177.5 128.833,177.5 142.5,177.5C 142.5,196.5 142.5,215.5 142.5,234.5C 128.833,234.5 115.167,234.5 101.5,234.5C 99.4514,233.118 97.7847,231.452 96.5,229.5C 96.5,213.833 96.5,198.167 96.5,182.5C 97.8333,180.5 99.5,178.833 101.5,177.5 Z M 102.5,182.5 C 101.35,198.092 101.183,213.759 102,229.5C 113.753,230.488 125.586,230.821 137.5,230.5C 137.5,214.5 137.5,198.5 137.5,182.5C 125.833,182.5 114.167,182.5 102.5,182.5 Z"/></g>
<g><path style="opacity:0.808" fill="#071722" d="M 338.5,177.5 C 352.167,177.5 365.833,177.5 379.5,177.5C 381.5,178.833 383.167,180.5 384.5,182.5C 384.5,198.167 384.5,213.833 384.5,229.5C 383.215,231.452 381.549,233.118 379.5,234.5C 365.833,234.5 352.167,234.5 338.5,234.5C 338.5,215.5 338.5,196.5 338.5,177.5 Z M 343.5,182.5 C 343.5,198.5 343.5,214.5 343.5,230.5C 355.171,230.667 366.838,230.5 378.5,230C 379.159,222.243 379.492,214.409 379.5,206.5C 379.492,198.591 379.159,190.757 378.5,183C 366.838,182.5 355.171,182.333 343.5,182.5 Z"/></g>
<g><path style="opacity:1" fill="#cae6f8" d="M 81.5,182.5 C 86.4868,185.06 91.4868,185.06 96.5,182.5C 96.5,198.167 96.5,213.833 96.5,229.5C 91.263,227.857 86.263,228.19 81.5,230.5C 81.5,214.5 81.5,198.5 81.5,182.5 Z"/></g>
<g><path style="opacity:1" fill="#cae5f8" d="M 399.5,181.5 C 399.5,197.833 399.5,214.167 399.5,230.5C 394.737,228.19 389.737,227.857 384.5,229.5C 384.5,213.833 384.5,198.167 384.5,182.5C 389.71,185.279 394.71,184.946 399.5,181.5 Z"/></g>
<g><path style="opacity:1" fill="#fbfbfb" d="M 50.5,232.5 C 53.4173,239.387 53.0839,246.054 49.5,252.5C 41.4181,263.18 31.4181,265.347 19.5,259C 10.7324,250.314 9.23242,240.48 15,229.5C 27.9222,218.066 39.7556,219.066 50.5,232.5 Z"/></g>
<g><path style="opacity:1" fill="#fbfbfb" d="M 430.5,252.5 C 427.526,245.249 427.86,238.249 431.5,231.5C 442.208,218.962 453.708,218.295 466,229.5C 472.97,242.781 470.137,253.281 457.5,261C 452.572,262.418 447.572,262.751 442.5,262C 438.05,259.381 434.05,256.214 430.5,252.5 Z"/></g>
<g><path style="opacity:1" fill="#fcfdfd" d="M 96.5,229.5 C 97.7847,231.452 99.4514,233.118 101.5,234.5C 104.065,239.531 104.065,244.531 101.5,249.5C 99.5,250.833 97.8333,252.5 96.5,254.5C 91.8127,257.041 87.1461,257.041 82.5,254.5C 82.5,253.167 81.8333,252.5 80.5,252.5C 79.8333,252.5 79.5,252.167 79.5,251.5C 77.8564,250.684 76.6897,249.35 76,247.5C 75.0366,242.58 75.5366,237.913 77.5,233.5C 79.4044,233.262 80.7377,232.262 81.5,230.5C 86.263,228.19 91.263,227.857 96.5,229.5 Z"/></g>
<g><path style="opacity:1" fill="#fdfdfd" d="M 399.5,230.5 C 400.262,232.262 401.596,233.262 403.5,233.5C 405.913,238.736 406.08,244.069 404,249.5C 403.005,250.066 402.172,250.733 401.5,251.5C 400.833,252.167 400.167,252.833 399.5,253.5C 394.746,257.012 389.746,257.345 384.5,254.5C 383.167,252.5 381.5,250.833 379.5,249.5C 376.935,244.531 376.935,239.531 379.5,234.5C 381.549,233.118 383.215,231.452 384.5,229.5C 389.737,227.857 394.737,228.19 399.5,230.5 Z"/></g>
<g><path style="opacity:1" fill="#cbe6f8" d="M 50.5,232.5 C 59.5281,232.32 68.5281,232.653 77.5,233.5C 75.5366,237.913 75.0366,242.58 76,247.5C 76.6897,249.35 77.8564,250.684 79.5,251.5C 69.479,251.371 59.479,251.704 49.5,252.5C 53.0839,246.054 53.4173,239.387 50.5,232.5 Z"/></g>
<g><path style="opacity:1" fill="#c9e4f6" d="M 431.5,231.5 C 427.86,238.249 427.526,245.249 430.5,252.5C 420.842,251.971 411.175,251.638 401.5,251.5C 402.172,250.733 403.005,250.066 404,249.5C 406.08,244.069 405.913,238.736 403.5,233.5C 412.81,232.533 422.143,231.866 431.5,231.5 Z"/></g>
<g><path style="opacity:1" fill="#cae3f5" d="M 101.5,234.5 C 115.167,234.5 128.833,234.5 142.5,234.5C 143.8,239.6 143.8,244.6 142.5,249.5C 128.833,249.5 115.167,249.5 101.5,249.5C 104.065,244.531 104.065,239.531 101.5,234.5 Z"/></g>
<g><path style="opacity:1" fill="#cbe4f6" d="M 338.5,234.5 C 352.167,234.5 365.833,234.5 379.5,234.5C 376.935,239.531 376.935,244.531 379.5,249.5C 365.833,249.5 352.167,249.5 338.5,249.5C 337.167,244.5 337.167,239.5 338.5,234.5 Z"/></g>
<g><path style="opacity:1" fill="#90a7b7" d="M 80.5,252.5 C 81.8333,252.5 82.5,253.167 82.5,254.5C 82.5,268.167 82.5,281.833 82.5,295.5C 82.5,296.167 82.1667,296.5 81.5,296.5C 81.816,281.755 81.4826,267.088 80.5,252.5 Z"/></g>
<g><path style="opacity:1" fill="#ceeafd" d="M 82.5,254.5 C 87.1461,257.041 91.8127,257.041 96.5,254.5C 96.5,268.167 96.5,281.833 96.5,295.5C 91.8018,294.222 87.1352,294.222 82.5,295.5C 82.5,281.833 82.5,268.167 82.5,254.5 Z"/></g>
<g><path style="opacity:1" fill="#cae5f8" d="M 399.5,253.5 C 399.5,267.833 399.5,282.167 399.5,296.5C 394.737,294.19 389.737,293.857 384.5,295.5C 384.5,281.833 384.5,268.167 384.5,254.5C 389.746,257.345 394.746,257.012 399.5,253.5 Z"/></g>
<g><path style="opacity:1" fill="#fafbfb" d="M 96.5,295.5 C 99.6011,298.708 101.934,302.375 103.5,306.5C 102.848,318.673 96.5146,323.34 84.5,320.5C 76.9154,317.331 74.082,311.665 76,303.5C 77.3823,300.695 79.2156,298.361 81.5,296.5C 82.1667,296.5 82.5,296.167 82.5,295.5C 87.1352,294.222 91.8018,294.222 96.5,295.5 Z"/></g>
<g><path style="opacity:1" fill="#fafafb" d="M 399.5,296.5 C 406.64,302.941 407.307,310.107 401.5,318C 399.783,319.559 397.783,320.392 395.5,320.5C 383.909,322.901 377.909,318.234 377.5,306.5C 379.058,302.395 381.391,298.729 384.5,295.5C 389.737,293.857 394.737,294.19 399.5,296.5 Z"/></g>
<g><path style="opacity:1" fill="#cde8fb" d="M 103.5,306.5 C 134.027,322.595 164.361,338.928 194.5,355.5C 187.73,360.367 184.063,367.034 183.5,375.5C 154.221,358.19 125.221,340.357 96.5,322C 92.3123,321.824 88.3123,321.324 84.5,320.5C 96.5146,323.34 102.848,318.673 103.5,306.5 Z"/></g>
<g><path style="opacity:1" fill="#cde8fb" d="M 377.5,306.5 C 377.909,318.234 383.909,322.901 395.5,320.5C 391.239,321.126 386.906,321.959 382.5,323C 354.282,340.725 325.948,358.225 297.5,375.5C 297.051,366.586 293.051,359.92 285.5,355.5C 315.815,338.674 346.481,322.34 377.5,306.5 Z"/></g>
<g><path style="opacity:1" fill="#fcfcfc" d="M 183.5,375.5 C 184.063,367.034 187.73,360.367 194.5,355.5C 209.216,350.124 220.382,354.124 228,367.5C 231.083,381.168 226.25,391.001 213.5,397C 196.4,399.732 186.4,392.566 183.5,375.5 Z"/></g>
<g><path style="opacity:1" fill="#fbfbfc" d="M 285.5,355.5 C 293.051,359.92 297.051,366.586 297.5,375.5C 294.118,392.534 283.785,399.701 266.5,397C 250.817,388.125 247.651,375.958 257,360.5C 263.846,353.823 272.012,351.657 281.5,354C 282.563,355.188 283.897,355.688 285.5,355.5 Z"/></g>
</svg>
